<svg xmlns="http://www.w3.org/2000/svg" viewBox="0 0 1071.97 790.1"><defs><style>.cls-1{fill:#2fb762;}</style></defs><title>Figura-04</title><g id="Figuras"><path class="cls-1" d="M154,790.1C50.9,762.42-8.41,687.1,1,627.1c4.8-30.71,27.73-58.22,53-73,22.17-13,55.65-21.71,159,6,18.32,4.91,34.53,9.82,49.22,14.65,50.59,16.66,86.27,32.14,93.78,35.35,43.78,18.71,324.55,122.63,404,28,20.78-24.75,20.85-56.5,21-120,.19-82.64-23.75-104.57-36-201-8.58-67.57-14.28-112.41,3-165C755,130.85,791.79,19,892,2.1c66.17-11.18,136.25,23,180,85v703H154Z"/></g></svg>