<svg xmlns="http://www.w3.org/2000/svg" viewBox="0 0 259.04 258.17"><defs><style>.cls-1{fill:#fff;}</style></defs><title>Grupo-07</title><g id="Circulo_V2_copia" data-name="Circulo V2 copia"><path class="cls-1" d="M131,4.25a125.3,125.3,0,0,1,88.6,213.89A125.29,125.29,0,1,1,42.45,41,124.44,124.44,0,0,1,131,4.25m0-1A126.29,126.29,0,1,0,257.33,129.54,126.29,126.29,0,0,0,131,3.25Z"/><path class="cls-1" d="M131,27.81A101.73,101.73,0,1,1,29.31,129.54,101.84,101.84,0,0,1,131,27.81m0-1A102.73,102.73,0,1,0,233.77,129.54,102.74,102.74,0,0,0,131,26.81Z"/><path class="cls-1" d="M131,52.32a77.23,77.23,0,1,1-77.22,77.22A77.32,77.32,0,0,1,131,52.32m0-1a78.23,78.23,0,1,0,78.23,78.22A78.22,78.22,0,0,0,131,51.32Z"/></g></svg>