<svg xmlns="http://www.w3.org/2000/svg" viewBox="0 0 114 114"><defs><style>.cls-1{fill:#fff;}</style></defs><title>Grupo-02</title><g id="Circulo_V1_copia" data-name="Circulo V1 copia"><path class="cls-1" d="M57.25,23a34,34,0,1,1-34,34,34,34,0,0,1,34-34m0-1a35,35,0,1,0,35,35,35,35,0,0,0-35-35Z"/><path class="cls-1" d="M57.25,1.5A55.5,55.5,0,1,1,1.75,57,55.57,55.57,0,0,1,57.25,1.5m0-1A56.5,56.5,0,1,0,113.75,57,56.51,56.51,0,0,0,57.25.5Z"/><path class="cls-1" d="M57.25,12a45,45,0,1,1-45,45,45,45,0,0,1,45-45m0-1a46,46,0,1,0,46,46,46,46,0,0,0-46-46Z"/></g></svg>