<svg xmlns="http://www.w3.org/2000/svg" viewBox="0 0 13.08 168.33"><defs><style>.cls-1{fill:#fff;}</style></defs><title>Grupo-04</title><g id="Cruz_V1_copia" data-name="Cruz V1 copia"><path class="cls-1" d="M7.75,9.33h-2v-4h-4v-2h4v-4h2v4h4v2h-4Z"/><path class="cls-1" d="M7.75,49.33h-2v-4h-4v-2h4v-4h2v4h4v2h-4Z"/><path class="cls-1" d="M7.75,127.33h-2v-4h-4v-2h4v-4h2v4h4v2h-4Z"/><path class="cls-1" d="M7.75,88.33h-2v-4h-4v-2h4v-4h2v4h4v2h-4Z"/><path class="cls-1" d="M7.75,166.33h-2v-4h-4v-2h4v-4h2v4h4v2h-4Z"/></g></svg>