<svg xmlns="http://www.w3.org/2000/svg" viewBox="0 0 283 254"><defs><style>.cls-1{fill:#f2f2f2;}</style></defs><title>Grupo-03</title><g id="Cuadro_V1_copia" data-name="Cuadro V1 copia"><circle class="cls-1" cx="23.5" cy="17.5" r="1.5"/><circle class="cls-1" cx="23.5" cy="37.5" r="1.5"/><circle class="cls-1" cx="23.5" cy="57.5" r="1.5"/><circle class="cls-1" cx="23.5" cy="77.5" r="1.5"/><circle class="cls-1" cx="23.5" cy="97.5" r="1.5"/><circle class="cls-1" cx="23.5" cy="117.5" r="1.5"/><circle class="cls-1" cx="23.5" cy="137.5" r="1.5"/><circle class="cls-1" cx="23.5" cy="157.5" r="1.5"/><circle class="cls-1" cx="23.5" cy="177.5" r="1.5"/><circle class="cls-1" cx="43.5" cy="17.5" r="1.5"/><circle class="cls-1" cx="43.5" cy="37.5" r="1.5"/><circle class="cls-1" cx="43.5" cy="57.5" r="1.5"/><circle class="cls-1" cx="43.5" cy="77.5" r="1.5"/><circle class="cls-1" cx="43.5" cy="97.5" r="1.5"/><circle class="cls-1" cx="43.5" cy="117.5" r="1.5"/><circle class="cls-1" cx="43.5" cy="137.5" r="1.5"/><circle class="cls-1" cx="43.5" cy="157.5" r="1.5"/><circle class="cls-1" cx="43.5" cy="177.5" r="1.5"/><circle class="cls-1" cx="63.5" cy="17.5" r="1.5"/><circle class="cls-1" cx="63.5" cy="37.5" r="1.5"/><circle class="cls-1" cx="63.5" cy="57.5" r="1.5"/><circle class="cls-1" cx="63.5" cy="77.5" r="1.5"/><circle class="cls-1" cx="63.5" cy="97.5" r="1.5"/><circle class="cls-1" cx="63.5" cy="117.5" r="1.5"/><circle class="cls-1" cx="63.5" cy="137.5" r="1.5"/><circle class="cls-1" cx="63.5" cy="157.5" r="1.5"/><circle class="cls-1" cx="63.5" cy="177.5" r="1.5"/><circle class="cls-1" cx="83.5" cy="17.5" r="1.5"/><circle class="cls-1" cx="83.5" cy="37.5" r="1.5"/><circle class="cls-1" cx="83.5" cy="57.5" r="1.5"/><circle class="cls-1" cx="83.5" cy="77.5" r="1.5"/><circle class="cls-1" cx="83.5" cy="97.5" r="1.5"/><circle class="cls-1" cx="83.5" cy="117.5" r="1.5"/><circle class="cls-1" cx="83.5" cy="137.5" r="1.5"/><circle class="cls-1" cx="83.5" cy="157.5" r="1.5"/><circle class="cls-1" cx="83.5" cy="177.5" r="1.5"/><circle class="cls-1" cx="103.5" cy="17.5" r="1.5"/><circle class="cls-1" cx="103.5" cy="37.5" r="1.5"/><circle class="cls-1" cx="103.5" cy="57.5" r="1.5"/><circle class="cls-1" cx="103.5" cy="77.5" r="1.5"/><circle class="cls-1" cx="103.5" cy="97.5" r="1.5"/><circle class="cls-1" cx="103.5" cy="117.5" r="1.5"/><circle class="cls-1" cx="103.5" cy="137.5" r="1.5"/><circle class="cls-1" cx="103.5" cy="157.5" r="1.5"/><circle class="cls-1" cx="103.5" cy="177.5" r="1.5"/><circle class="cls-1" cx="123.5" cy="17.5" r="1.5"/><circle class="cls-1" cx="123.5" cy="37.5" r="1.5"/><circle class="cls-1" cx="123.5" cy="57.5" r="1.5"/><circle class="cls-1" cx="123.5" cy="77.5" r="1.5"/><circle class="cls-1" cx="123.5" cy="97.5" r="1.5"/><circle class="cls-1" cx="123.5" cy="117.5" r="1.5"/><circle class="cls-1" cx="123.5" cy="137.5" r="1.5"/><circle class="cls-1" cx="123.5" cy="157.5" r="1.5"/><circle class="cls-1" cx="123.5" cy="177.5" r="1.5"/><circle class="cls-1" cx="143.5" cy="17.5" r="1.5"/><circle class="cls-1" cx="143.5" cy="37.5" r="1.5"/><circle class="cls-1" cx="143.5" cy="57.5" r="1.5"/><circle class="cls-1" cx="143.5" cy="77.5" r="1.5"/><circle class="cls-1" cx="143.5" cy="97.5" r="1.5"/><circle class="cls-1" cx="143.5" cy="117.5" r="1.5"/><circle class="cls-1" cx="143.5" cy="137.5" r="1.5"/><circle class="cls-1" cx="143.5" cy="157.5" r="1.5"/><circle class="cls-1" cx="143.5" cy="177.5" r="1.5"/><circle class="cls-1" cx="163.5" cy="17.5" r="1.5"/><circle class="cls-1" cx="163.5" cy="37.5" r="1.5"/><circle class="cls-1" cx="163.5" cy="57.5" r="1.5"/><circle class="cls-1" cx="163.5" cy="77.5" r="1.5"/><circle class="cls-1" cx="163.5" cy="97.5" r="1.5"/><circle class="cls-1" cx="163.5" cy="117.5" r="1.5"/><circle class="cls-1" cx="163.5" cy="137.5" r="1.5"/><circle class="cls-1" cx="163.5" cy="157.5" r="1.5"/><circle class="cls-1" cx="163.5" cy="177.5" r="1.5"/><circle class="cls-1" cx="183.5" cy="17.5" r="1.5"/><circle class="cls-1" cx="183.5" cy="37.5" r="1.5"/><circle class="cls-1" cx="183.5" cy="57.5" r="1.5"/><circle class="cls-1" cx="183.5" cy="77.5" r="1.5"/><circle class="cls-1" cx="183.5" cy="97.5" r="1.5"/><circle class="cls-1" cx="183.5" cy="117.5" r="1.5"/><circle class="cls-1" cx="183.5" cy="137.5" r="1.5"/><circle class="cls-1" cx="183.5" cy="157.5" r="1.5"/><circle class="cls-1" cx="183.5" cy="177.5" r="1.5"/><circle class="cls-1" cx="203.5" cy="17.5" r="1.5"/><circle class="cls-1" cx="203.5" cy="37.5" r="1.5"/><circle class="cls-1" cx="203.5" cy="57.5" r="1.5"/><circle class="cls-1" cx="203.5" cy="77.5" r="1.5"/><circle class="cls-1" cx="203.5" cy="97.5" r="1.5"/><circle class="cls-1" cx="203.5" cy="117.5" r="1.5"/><circle class="cls-1" cx="203.5" cy="137.5" r="1.5"/><circle class="cls-1" cx="203.5" cy="157.5" r="1.5"/><circle class="cls-1" cx="203.5" cy="177.5" r="1.5"/><circle class="cls-1" cx="223.5" cy="17.5" r="1.5"/><circle class="cls-1" cx="223.5" cy="37.5" r="1.5"/><circle class="cls-1" cx="223.5" cy="57.5" r="1.5"/><circle class="cls-1" cx="223.5" cy="77.5" r="1.5"/><circle class="cls-1" cx="223.5" cy="97.5" r="1.5"/><circle class="cls-1" cx="223.5" cy="117.5" r="1.5"/><circle class="cls-1" cx="223.5" cy="137.5" r="1.5"/><circle class="cls-1" cx="223.5" cy="157.5" r="1.5"/><circle class="cls-1" cx="223.5" cy="177.5" r="1.5"/><circle class="cls-1" cx="243.5" cy="17.5" r="1.5"/><circle class="cls-1" cx="243.5" cy="37.5" r="1.5"/><circle class="cls-1" cx="243.5" cy="57.5" r="1.5"/><circle class="cls-1" cx="243.5" cy="77.5" r="1.5"/><circle class="cls-1" cx="243.5" cy="97.5" r="1.5"/><circle class="cls-1" cx="243.5" cy="117.5" r="1.5"/><circle class="cls-1" cx="243.5" cy="137.5" r="1.5"/><circle class="cls-1" cx="243.5" cy="157.5" r="1.5"/><circle class="cls-1" cx="243.5" cy="177.5" r="1.5"/><circle class="cls-1" cx="263.5" cy="17.5" r="1.5"/><circle class="cls-1" cx="263.5" cy="37.5" r="1.5"/><circle class="cls-1" cx="263.5" cy="57.5" r="1.5"/><circle class="cls-1" cx="263.5" cy="77.5" r="1.5"/><circle class="cls-1" cx="263.5" cy="97.5" r="1.5"/><circle class="cls-1" cx="263.5" cy="117.5" r="1.5"/><circle class="cls-1" cx="263.5" cy="137.5" r="1.5"/><circle class="cls-1" cx="263.5" cy="157.5" r="1.5"/><circle class="cls-1" cx="263.5" cy="177.5" r="1.5"/><circle class="cls-1" cx="23.5" cy="197.5" r="1.5"/><circle class="cls-1" cx="23.5" cy="217.5" r="1.5"/><circle class="cls-1" cx="43.5" cy="197.5" r="1.5"/><circle class="cls-1" cx="43.5" cy="217.5" r="1.5"/><circle class="cls-1" cx="63.5" cy="197.5" r="1.5"/><circle class="cls-1" cx="63.5" cy="217.5" r="1.5"/><circle class="cls-1" cx="83.5" cy="197.5" r="1.5"/><circle class="cls-1" cx="83.5" cy="217.5" r="1.5"/><circle class="cls-1" cx="103.5" cy="197.5" r="1.5"/><circle class="cls-1" cx="103.5" cy="217.5" r="1.5"/><circle class="cls-1" cx="123.5" cy="197.5" r="1.5"/><circle class="cls-1" cx="123.5" cy="217.5" r="1.5"/><circle class="cls-1" cx="143.5" cy="197.5" r="1.5"/><circle class="cls-1" cx="143.5" cy="217.5" r="1.5"/><circle class="cls-1" cx="163.5" cy="197.5" r="1.5"/><circle class="cls-1" cx="163.5" cy="217.5" r="1.5"/><circle class="cls-1" cx="183.5" cy="197.5" r="1.5"/><circle class="cls-1" cx="183.5" cy="217.5" r="1.5"/><circle class="cls-1" cx="203.5" cy="197.5" r="1.5"/><circle class="cls-1" cx="203.5" cy="217.5" r="1.5"/><circle class="cls-1" cx="223.5" cy="197.5" r="1.5"/><circle class="cls-1" cx="223.5" cy="217.5" r="1.5"/><circle class="cls-1" cx="243.5" cy="197.5" r="1.5"/><circle class="cls-1" cx="243.5" cy="217.5" r="1.5"/><circle class="cls-1" cx="263.5" cy="197.5" r="1.5"/><circle class="cls-1" cx="263.5" cy="217.5" r="1.5"/><circle class="cls-1" cx="23.5" cy="237.5" r="1.5"/><circle class="cls-1" cx="43.5" cy="237.5" r="1.5"/><circle class="cls-1" cx="63.5" cy="237.5" r="1.5"/><circle class="cls-1" cx="83.5" cy="237.5" r="1.5"/><circle class="cls-1" cx="103.5" cy="237.5" r="1.5"/><circle class="cls-1" cx="123.5" cy="237.5" r="1.5"/><circle class="cls-1" cx="143.5" cy="237.5" r="1.5"/><circle class="cls-1" cx="163.5" cy="237.5" r="1.5"/><circle class="cls-1" cx="183.5" cy="237.5" r="1.5"/><circle class="cls-1" cx="203.5" cy="237.5" r="1.5"/><circle class="cls-1" cx="223.5" cy="237.5" r="1.5"/><circle class="cls-1" cx="243.5" cy="237.5" r="1.5"/><circle class="cls-1" cx="263.5" cy="237.5" r="1.5"/></g></svg>