<svg xmlns="http://www.w3.org/2000/svg" viewBox="0 0 174 170"><defs><style>.cls-1{fill:#f2f2f2;}</style></defs><title>Grupo-06</title><g id="Cuadro_V2_copia" data-name="Cuadro V2 copia"><circle class="cls-1" cx="7.5" cy="5.5" r="1.5"/><circle class="cls-1" cx="7.5" cy="25.5" r="1.5"/><circle class="cls-1" cx="7.5" cy="45.5" r="1.5"/><circle class="cls-1" cx="7.5" cy="65.5" r="1.5"/><circle class="cls-1" cx="7.5" cy="85.5" r="1.5"/><circle class="cls-1" cx="7.5" cy="105.5" r="1.5"/><circle class="cls-1" cx="7.5" cy="125.5" r="1.5"/><circle class="cls-1" cx="7.5" cy="145.5" r="1.5"/><circle class="cls-1" cx="7.5" cy="165.5" r="1.5"/><circle class="cls-1" cx="27.5" cy="5.5" r="1.5"/><circle class="cls-1" cx="27.5" cy="25.5" r="1.5"/><circle class="cls-1" cx="27.5" cy="45.5" r="1.5"/><circle class="cls-1" cx="27.5" cy="65.5" r="1.5"/><circle class="cls-1" cx="27.5" cy="85.5" r="1.5"/><circle class="cls-1" cx="27.5" cy="105.5" r="1.5"/><circle class="cls-1" cx="27.5" cy="125.5" r="1.5"/><circle class="cls-1" cx="27.5" cy="145.5" r="1.5"/><circle class="cls-1" cx="27.5" cy="165.5" r="1.5"/><circle class="cls-1" cx="47.5" cy="5.5" r="1.5"/><circle class="cls-1" cx="47.5" cy="25.5" r="1.5"/><circle class="cls-1" cx="47.5" cy="45.5" r="1.5"/><circle class="cls-1" cx="47.5" cy="65.5" r="1.5"/><circle class="cls-1" cx="47.5" cy="85.5" r="1.5"/><circle class="cls-1" cx="47.5" cy="105.5" r="1.5"/><circle class="cls-1" cx="47.5" cy="125.5" r="1.5"/><circle class="cls-1" cx="47.5" cy="145.5" r="1.5"/><circle class="cls-1" cx="47.5" cy="165.5" r="1.5"/><circle class="cls-1" cx="67.5" cy="5.5" r="1.5"/><circle class="cls-1" cx="67.5" cy="25.5" r="1.5"/><circle class="cls-1" cx="67.5" cy="45.5" r="1.5"/><circle class="cls-1" cx="67.5" cy="65.5" r="1.5"/><circle class="cls-1" cx="67.5" cy="85.5" r="1.5"/><circle class="cls-1" cx="67.5" cy="105.5" r="1.5"/><circle class="cls-1" cx="67.5" cy="125.5" r="1.5"/><circle class="cls-1" cx="67.5" cy="145.5" r="1.5"/><circle class="cls-1" cx="67.5" cy="165.5" r="1.5"/><circle class="cls-1" cx="87.5" cy="5.5" r="1.5"/><circle class="cls-1" cx="87.5" cy="25.5" r="1.5"/><circle class="cls-1" cx="87.5" cy="45.5" r="1.5"/><circle class="cls-1" cx="87.5" cy="65.5" r="1.5"/><circle class="cls-1" cx="87.5" cy="85.5" r="1.5"/><circle class="cls-1" cx="87.5" cy="105.5" r="1.5"/><circle class="cls-1" cx="87.5" cy="125.5" r="1.5"/><circle class="cls-1" cx="87.5" cy="145.5" r="1.5"/><circle class="cls-1" cx="87.5" cy="165.5" r="1.5"/><circle class="cls-1" cx="107.5" cy="5.5" r="1.5"/><circle class="cls-1" cx="107.5" cy="25.5" r="1.5"/><circle class="cls-1" cx="107.5" cy="45.5" r="1.5"/><circle class="cls-1" cx="107.5" cy="65.5" r="1.5"/><circle class="cls-1" cx="107.5" cy="85.5" r="1.5"/><circle class="cls-1" cx="107.5" cy="105.5" r="1.5"/><circle class="cls-1" cx="107.5" cy="125.5" r="1.5"/><circle class="cls-1" cx="107.5" cy="145.5" r="1.5"/><circle class="cls-1" cx="107.5" cy="165.5" r="1.5"/><circle class="cls-1" cx="127.5" cy="5.5" r="1.5"/><circle class="cls-1" cx="127.5" cy="25.5" r="1.5"/><circle class="cls-1" cx="127.5" cy="45.5" r="1.5"/><circle class="cls-1" cx="127.5" cy="65.5" r="1.5"/><circle class="cls-1" cx="127.5" cy="85.5" r="1.5"/><circle class="cls-1" cx="127.5" cy="105.5" r="1.5"/><circle class="cls-1" cx="127.5" cy="125.5" r="1.5"/><circle class="cls-1" cx="127.5" cy="145.5" r="1.5"/><circle class="cls-1" cx="127.5" cy="165.5" r="1.5"/><circle class="cls-1" cx="147.5" cy="5.5" r="1.5"/><circle class="cls-1" cx="147.5" cy="25.5" r="1.5"/><circle class="cls-1" cx="147.5" cy="45.5" r="1.5"/><circle class="cls-1" cx="147.5" cy="65.5" r="1.5"/><circle class="cls-1" cx="147.5" cy="85.5" r="1.5"/><circle class="cls-1" cx="147.5" cy="105.5" r="1.5"/><circle class="cls-1" cx="147.5" cy="125.5" r="1.5"/><circle class="cls-1" cx="147.5" cy="145.5" r="1.5"/><circle class="cls-1" cx="147.5" cy="165.5" r="1.5"/><circle class="cls-1" cx="167.5" cy="5.5" r="1.5"/><circle class="cls-1" cx="167.5" cy="25.5" r="1.5"/><circle class="cls-1" cx="167.5" cy="45.5" r="1.5"/><circle class="cls-1" cx="167.5" cy="65.5" r="1.5"/><circle class="cls-1" cx="167.5" cy="85.5" r="1.5"/><circle class="cls-1" cx="167.5" cy="105.5" r="1.5"/><circle class="cls-1" cx="167.5" cy="125.5" r="1.5"/><circle class="cls-1" cx="167.5" cy="145.5" r="1.5"/><circle class="cls-1" cx="167.5" cy="165.5" r="1.5"/></g></svg>